@startuml
skinparam packageStyle rectangle
skinparam shadowing false
skinparam linetype polyline
skinparam classAttributeIconSize 0

class Player {
    - budget : double
}

class BuyLocomotiveUI {
}

class BuyLocomotiveController {
    + getAvailableLocomotives() : List<Locomotive>
    + buyLocomotive(selected : Locomotive, currentDate : LocalDate) : boolean
}

class LocomotiveRepository {
    + getAvailableLocomotives() : List<Locomotive>
}

class Locomotive {
    - type : String
    - power : double
    - acceleration : double
    - topSpeed : double
    - startYearOfOperation : int
    - fuelCost : double
    - maintenancePerYear : double
    - acquisitionPrice : double
    - cost : double
    - serialNumber : String
}

class Repositories {
    - Repositories()
    + {static} getInstance() : Repositories
    + getLocomotiveRepository() : LocomotiveRepository
}

Player --> "*" Locomotive : owns >
Repositories -> "1" Repositories : instance
BuyLocomotiveUI .> BuyLocomotiveController
BuyLocomotiveController .> Repositories
BuyLocomotiveController .> LocomotiveRepository
Repositories --> "1" LocomotiveRepository : locomotiveRepository
LocomotiveRepository --> "*" Locomotive : locomotives

@enduml
