@startuml
skinparam packageStyle rectangle
skinparam shadowing false
skinparam linetype polyline
skinparam classAttributeIconSize 0

class CreateMapUI {
    + run()
}

class CreateMapController {
    + CreateMapController()
    + createMap(mapDTO : MapDTO) : void
    - verifyName(name : String) : boolean
}

interface IRepositories {
    + getMapRepository() : IMapRepository
}

class Repositories implements IRepositories {
    - Repositories()
    + {static} getInstance() : Repositories
    + getMapRepository() : IMapRepository
}

interface IMapRepository {
    + isMapNameTaken(name : String) : boolean
    + save(map : Map) : void
}

class MapRepository implements IMapRepository {
    + isMapNameTaken(name : String) : boolean
    + save(map : Map) : void
}

interface IMapMapper {
    + toDomain(dto : MapDTO) : Map
}

class MapMapper implements IMapMapper {
    + toDomain(dto : MapDTO) : Map
}

class MapDTO {
    - name : String
    - width : int
    - height : int
    - scale : int
    + getName() : String
    + getWidth() : int
    + getHeight() : int
    + getScale() : int
}

class Map {
    - name : String
    - dimensions : Dimensions
    - scale : int
    - elements : List<Element>
    - scenarios : List<Scenario>
    + Map(name : String, dimensions : Dimensions, scale : int)
    + addElement(e : Element) : void
    + getName() : String
}



CreateMapUI ..> CreateMapController
CreateMapController ..> IRepositories
Repositories ..|> IRepositories
Repositories --> IMapRepository
MapRepository ..|> IMapRepository
CreateMapController ..> IMapRepository
CreateMapController ..> IMapMapper
CreateMapController ..> MapDTO
CreateMapController ..> Map
IMapMapper <|.. MapMapper
MapMapper ..> MapDTO
MapMapper ..> Map

@enduml
